<svg width="1200" height="956" viewBox="0 0 1200 956" fill="none" xmlns="http://www.w3.org/2000/svg">
<path fill-rule="evenodd" clip-rule="evenodd" d="M41.207 503.399C4.96737 503.399 -13.1808 547.215 12.4455 572.839L146.729 707.113C165.483 725.865 190.917 736.399 217.437 736.399H288.13C314.65 736.399 340.084 746.934 358.838 765.686L519.877 926.713C538.631 945.465 564.065 956 590.585 956H979.439C1051.97 956 1088.3 868.302 1037 817.015L950.613 730.63C931.202 711.22 944.949 678.031 972.399 678.031C999.85 678.031 1013.6 644.841 994.186 625.431L798.851 430.111C780.097 411.359 754.663 400.824 728.143 400.824H493.701C467.181 400.824 441.746 390.289 422.993 371.537L387.74 336.287C368.986 317.535 343.552 307 317.032 307H81.8805C30.6319 307 4.96737 368.963 41.207 405.199L69.9685 433.959C95.5947 459.583 77.4466 503.399 41.207 503.399Z" fill="#2D314D"/>
<path fill-rule="evenodd" clip-rule="evenodd" d="M179.207 196.399C142.967 196.399 124.819 240.215 150.445 265.839L284.729 400.113C303.483 418.865 328.917 429.399 355.437 429.399H426.13C452.65 429.399 478.084 439.934 496.838 458.686L657.877 619.713C676.631 638.465 702.065 649 728.585 649H1117.44C1189.97 649 1226.3 561.302 1175 510.015L1088.61 423.63C1069.2 404.22 1082.95 371.03 1110.4 371.03C1137.85 371.03 1151.6 337.841 1132.19 318.431L936.851 123.111C918.097 104.359 892.663 93.8239 866.143 93.8239H631.701C605.18 93.8239 579.746 83.2892 560.993 64.5372L525.74 29.2866C506.986 10.5346 481.552 0 455.032 0H219.881C168.632 0 142.967 61.9626 179.207 98.1995L207.968 126.959C233.595 152.583 215.447 196.399 179.207 196.399Z" fill="url(#paint0_linear_50_7)"/>
<defs>
<linearGradient id="paint0_linear_50_7" x1="-532.913" y1="323.138" x2="-0.165926" y2="1335.28" gradientUnits="userSpaceOnUse">
<stop stop-color="#33D35E"/>
<stop offset="1" stop-color="#2AB6D9"/>
</linearGradient>
</defs>
</svg>
